PathFileType	4	(X/Y/Z)	./resultDataOpenSim/trcMotMarkerGrf/sub09/qtm-01-03.trc
DataRate	CameraRate	NumFrames	NumMarkers	Units	OrigDataRate	OrigDataStartFrame	OrigNumFrames
250.000000	250.000000	11	24	m	250.000000	117	465
Frame#	Time	L.Toe.Tip			R.Toe.Tip			L.Ankle.Lat			R.Ankle.Lat			L.Ankle.Med			R.Ankle.Med			L.Heel			R.Heel			L.Knee.Lat			R.Knee.Lat			L.Knee.Med			R.Knee.Med			L.Thigh.Upper			R.Thigh.Upper			L.ASIS			R.ASIS			V.Sacral			L.Acromium			R.Acromium			C7			L.Elbow			R.Elbow			L.Wrist.Lat			R.Wrist.Lat
		X1	Y1	Z1	X2	Y2	Z2	X3	Y3	Z3	X4	Y4	Z4	X5	Y5	Z5	X6	Y6	Z6	X7	Y7	Z7	X8	Y8	Z8	X9	Y9	Z9	X10	Y10	Z10	X11	Y11	Z11	X12	Y12	Z12	X13	Y13	Z13	X14	Y14	Z14	X15	Y15	Z15	X16	Y16	Z16	X17	Y17	Z17	X18	Y18	Z18	X19	Y19	Z19	X20	Y20	Z20	X21	Y21	Z21	X22	Y22	Z22	X23	Y23	Z23	X24	Y24	Z24

117	0.464	-0.20488048	0.10368983	-0.0071128577	-0.64978959	0.039208989	0.096668039	-0.35623515	0.10515353	-0.04393801	-0.79845875	0.057009332	0.12144998	-0.3375282	0.12773266	0.05121792	-0.78258736	0.095942119	0.032376453	-0.41392984	0.05240076	0.0058821493	-0.86433179	0.036687327	0.067841207	-0.39777145	0.52260121	-0.079768701	-0.67792265	0.50335708	0.19451881	-0.39988511	0.51799035	0.04568684	-0.69279821	0.49335305	0.065957745	-0.5945003	0.89365411	-0.1223332	-0.64572718	0.90547309	0.24762973	-0.52788097	0.97923826	-0.055159604	-0.53458823	0.98382289	0.18454211	-0.69621318	1.0397441	0.05339842	-0.52776911	1.4287593	-0.10714304	-0.54396833	1.4433008	0.22198025	-0.59948288	1.4889355	0.057991406	-0.70290557	1.1030834	-0.15742708	-0.67742149	1.1022505	0.32201465	-0.57825615	0.86965532	-0.19221026	-0.49644996	0.89300194	0.3045209
118	0.468	-0.18633939	0.1072246	-0.0061628463	-0.64975822	0.039105451	0.09661487	-0.33786498	0.10482721	-0.043249665	-0.79843218	0.057305705	0.12110102	-0.31957986	0.1284068	0.052022733	-0.78224136	0.096001022	0.032113645	-0.39408519	0.050841297	0.0067473116	-0.86426045	0.036944605	0.067455665	-0.39131976	0.52076208	-0.080118226	-0.67493173	0.50299066	0.19454991	-0.39355859	0.51618534	0.045434733	-0.69047149	0.49307523	0.065936881	-0.58765023	0.8920889	-0.12225663	-0.64025221	0.90462077	0.24743623	-0.52125605	0.97773452	-0.055026815	-0.52851538	0.98261845	0.18466576	-0.68973601	1.0383892	0.053148692	-0.52140036	1.4274751	-0.10724562	-0.53788258	1.4420069	0.22194713	-0.59325909	1.487634	0.057869428	-0.69707557	1.1022231	-0.15767671	-0.67107415	1.1007958	0.32217166	-0.57345526	0.86832933	-0.19275358	-0.48918577	0.89233957	0.30426216
119	0.472	-0.16818161	0.11082258	-0.0053119619	-0.64972318	0.039008384	0.096571819	-0.31985362	0.10474787	-0.042616643	-0.79839101	0.057644296	0.12076729	-0.30195176	0.1293149	0.052777022	-0.78188336	0.096073057	0.03184815	-0.37458657	0.049620641	0.007604842	-0.86418998	0.037220459	0.06706286	-0.38488225	0.51879515	-0.080362905	-0.67207328	0.50240296	0.19438254	-0.38722096	0.51420091	0.045272107	-0.6880432	0.49276878	0.065937868	-0.58080126	0.89044615	-0.12217333	-0.63474811	0.90372995	0.24724448	-0.51461254	0.97617537	-0.054887253	-0.5224343	0.98136977	0.18478465	-0.68325119	1.0369458	0.052925323	-0.51496758	1.4261242	-0.10734475	-0.53181312	1.4406549	0.22191645	-0.58702126	1.4862768	0.057747188	-0.69122526	1.1012865	-0.15801648	-0.66471902	1.0992755	0.32230064	-0.56857232	0.86694271	-0.19332249	-0.48194316	0.89159919	0.30403314
120	0.476	-0.15042404	0.11442646	-0.0045524044	-0.64967883	0.038938259	0.096564966	-0.30219631	0.10491011	-0.042024725	-0.79834826	0.057958032	0.12046549	-0.28473622	0.1303588	0.053396827	-0.7815277	0.096161756	0.031590288	-0.35548804	0.048734988	0.008411794	-0.86411386	0.037520926	0.066663202	-0.37846241	0.51672713	-0.080509763	-0.66972266	0.5018871	0.1943651	-0.38077356	0.51206423	0.045238532	-0.68551317	0.49242881	0.065964539	-0.5741092	0.88871384	-0.12209985	-0.62922222	0.90278803	0.2470543	-0.50792165	0.97456852	-0.054746736	-0.51633427	0.98008297	0.18489654	-0.67674699	1.0354071	0.052719071	-0.50854503	1.424719	-0.10744144	-0.52575835	1.4392551	0.22188552	-0.58076505	1.484869	0.057624466	-0.68533301	1.1002709	-0.15836738	-0.65835454	1.0976903	0.3224001	-0.56359489	0.86551339	-0.19388077	-0.47473082	0.89078704	0.3038329
121	0.48	-0.13310301	0.11799115	-0.0038788438	-0.64963166	0.038887452	0.096585871	-0.28489659	0.10531519	-0.041463753	-0.79831857	0.058225692	0.12020184	-0.26797198	0.1314805	0.05387147	-0.78118984	0.096263874	0.031336942	-0.33684801	0.048173682	0.009128082	-0.86402899	0.037852043	0.066259949	-0.37204173	0.51461766	-0.080576417	-0.66790557	0.50155791	0.19461257	-0.37414797	0.50983982	0.045359318	-0.68289731	0.49205051	0.066000822	-0.56759688	0.88688909	-0.12203178	-0.62367018	0.90178866	0.24686209	-0.50118593	0.9729237	-0.054605149	-0.51020813	0.97875891	0.18500403	-0.67021356	1.0337662	0.052511431	-0.50216878	1.4232652	-0.1075403	-0.51970332	1.4378128	0.22185488	-0.5744942	1.4834144	0.057493806	-0.67939231	1.0991809	-0.15869759	-0.65197748	1.0960438	0.32246944	-0.55854566	0.86404053	-0.19440268	-0.46755392	0.88990826	0.30366281
122	0.484	-0.11626287	0.12148087	-0.0032862898	-0.64958866	0.038842161	0.096620963	-0.26799252	0.10596069	-0.040951148	-0.79830163	0.058471387	0.11996974	-0.25163574	0.13267005	0.054262452	-0.78087952	0.096367744	0.031058801	-0.31872471	0.047913491	0.0097227056	-0.86393486	0.03821592	0.065857062	-0.36558864	0.51252385	-0.080587271	-0.66619667	0.50124892	0.19489018	-0.36739154	0.50760087	0.045596484	-0.68019056	0.4916326	0.066039348	-0.56120151	0.88498079	-0.12195403	-0.61807921	0.900737	0.2466682	-0.49444843	0.97124608	-0.054457956	-0.50405776	0.97739585	0.18511011	-0.66365547	1.0320236	0.052283064	-0.49581478	1.4217653	-0.10763785	-0.51364822	1.4363298	0.22182603	-0.5682236	1.4819217	0.057350005	-0.67341657	1.0980235	-0.15900809	-0.64558511	1.0943404	0.32250779	-0.5534525	0.86250596	-0.19489423	-0.46041272	0.88896238	0.30352678
123	0.488	-0.099931871	0.12485863	-0.0027642965	-0.64955227	0.038794129	0.096664703	-0.25155246	0.10683079	-0.040531215	-0.79828593	0.058720228	0.11975194	-0.23569574	0.13392786	0.054612728	-0.78059228	0.096465347	0.030733036	-0.30116822	0.047913363	0.010172384	-0.86382907	0.038607678	0.065452593	-0.35906717	0.51047891	-0.080561086	-0.66422864	0.50081471	0.19500079	-0.36062262	0.50539838	0.045881578	-0.67735035	0.49118309	0.066078909	-0.55484814	0.88300233	-0.12186292	-0.61243096	0.89963473	0.24647259	-0.48774841	0.9695371	-0.054304632	-0.49789509	0.97599479	0.18520982	-0.65710002	1.0302058	0.052032001	-0.48944496	1.4202198	-0.10772443	-0.50760033	1.4348039	0.22179916	-0.56196842	1.4804129	0.05719981	-0.66742198	1.0968001	-0.15930937	-0.63917777	1.0925829	0.32251256	-0.54833944	0.86089157	-0.19538349	-0.45329862	0.88794753	0.30342499
124	0.492	-0.084121912	0.12808962	-0.0022955764	-0.64952114	0.038741077	0.09671638	-0.23563605	0.10788264	-0.040243223	-0.79825876	0.058981852	0.11953063	-0.22017578	0.13523658	0.054887319	-0.78029507	0.096575017	0.030390172	-0.2842155	0.048116866	0.010458534	-0.86370654	0.039022408	0.065033708	-0.35245152	0.50849902	-0.080510773	-0.66192808	0.50024715	0.19495122	-0.35390178	0.50324858	0.046184538	-0.67432866	0.4907136	0.066112149	-0.54846554	0.88096735	-0.12177069	-0.60671078	0.89847494	0.24627091	-0.48108433	0.96780086	-0.054153339	-0.49173119	0.97456188	0.18529135	-0.65057897	1.0283504	0.051771743	-0.48304596	1.4186257	-0.10780375	-0.50154145	1.4332275	0.22177033	-0.55573043	1.4789032	0.05705084	-0.66139016	1.0955058	-0.15962364	-0.63276069	1.0907759	0.32248209	-0.54321641	0.85919621	-0.19589169	-0.44619816	0.88686372	0.30335031
125	0.496	-0.068848505	0.13114815	-0.0018597743	-0.64949134	0.038683763	0.096772065	-0.22026398	0.10902932	-0.040092868	-0.79821173	0.059259429	0.11929322	-0.20516062	0.13655385	0.055032134	-0.77993637	0.096742206	0.030087524	-0.26789394	0.048461306	0.010567791	-0.86356286	0.03946868	0.064576431	-0.34572675	0.50659867	-0.08044917	-0.65931287	0.49955833	0.19479485	-0.34720751	0.50115066	0.046514741	-0.67110279	0.49022666	0.0661245	-0.54200612	0.87888988	-0.12168601	-0.60091397	0.89725386	0.24606616	-0.47442851	0.96604604	-0.054016389	-0.48556798	0.97310255	0.18535126	-0.64409928	1.0264637	0.051508088	-0.47663187	1.4169789	-0.10789718	-0.49543357	1.4315938	0.2217279	-0.54949303	1.4773668	0.056891893	-0.65525846	1.0941325	-0.15998185	-0.62633947	1.0889274	0.32241556	-0.53807413	0.85742925	-0.19641937	-0.43910539	0.88571121	0.30329851
126	0.5	-0.054142374	0.13400978	-0.0014400013	-0.64945721	0.038623866	0.096820802	-0.20544044	0.11016631	-0.040051901	-0.7981436	0.059556154	0.11902608	-0.19075253	0.1378121	0.055072219	-0.779487	0.097001216	0.029838903	-0.25222727	0.048883902	0.010500456	-0.86339452	0.039967583	0.064049703	-0.33887684	0.50479973	-0.080389931	-0.65638912	0.49874612	0.19455651	-0.34050854	0.49910746	0.046879553	-0.66768791	0.48971137	0.066102813	-0.53545586	0.87678099	-0.12160537	-0.59504097	0.8959725	0.2458744	-0.46775953	0.96428183	-0.053902697	-0.4793988	0.97161573	0.18540034	-0.63765029	1.024517	0.051228198	-0.4702196	1.4152804	-0.1080246	-0.48925972	1.4299066	0.22165921	-0.54323202	1.4757596	0.056701701	-0.64899367	1.0926754	-0.16039622	-0.61991215	1.0870446	0.32230769	-0.53289529	0.85559941	-0.19695568	-0.4320253	0.88448958	0.30327249
127	0.504	-0.04003989	0.13664257	-0.001025189	-0.64941264	0.03856335	0.096849	-0.19120036	0.11122639	-0.040066642	-0.7980579	0.059876381	0.11871654	-0.17702439	0.13893804	0.055086273	-0.77895609	0.097342731	0.029609887	-0.23723023	0.049320376	0.010276124	-0.86319994	0.040533956	0.063432766	-0.33189638	0.5031235	-0.080340818	-0.65316746	0.49781733	0.19425221	-0.3338038	0.49712743	0.047266481	-0.66411661	0.489155	0.066037709	-0.52881196	0.87464855	-0.12152023	-0.58909374	0.89462699	0.24571024	-0.46107365	0.96251274	-0.053817401	-0.47320846	0.97009798	0.18544712	-0.63125975	1.0224696	0.050889449	-0.4638089	1.4135368	-0.10818532	-0.48304764	1.4281837	0.22156231	-0.53693533	1.4740788	0.056474121	-0.6426435	1.0911376	-0.1608469	-0.61347118	1.085127	0.32215077	-0.52766804	0.85371356	-0.19749302	-0.42496382	0.88320074	0.30327115
